<?xml version="1.0" encoding="UTF-8" standalone="no"?>
<!-- Created with Inkscape (http://www.inkscape.org/) -->

<svg
   width="16"
   height="16"
   viewBox="0 0 16 16"
   version="1.1"
   id="svg1"
   inkscape:version="1.3.2 (091e20e, 2023-11-25, custom)"
   sodipodi:docname="card_space2D.svg"
   xmlns:inkscape="http://www.inkscape.org/namespaces/inkscape"
   xmlns:sodipodi="http://sodipodi.sourceforge.net/DTD/sodipodi-0.dtd"
   xmlns="http://www.w3.org/2000/svg"
   xmlns:svg="http://www.w3.org/2000/svg">
  <sodipodi:namedview
     id="namedview1"
     pagecolor="#ffffff"
     bordercolor="#000000"
     borderopacity="0.25"
     inkscape:showpageshadow="2"
     inkscape:pageopacity="0.0"
     inkscape:pagecheckerboard="0"
     inkscape:deskcolor="#d1d1d1"
     inkscape:document-units="px"
     showgrid="true"
     inkscape:zoom="28.7"
     inkscape:cx="9.1289199"
     inkscape:cy="7.9965157"
     inkscape:window-width="1920"
     inkscape:window-height="1057"
     inkscape:window-x="-8"
     inkscape:window-y="490"
     inkscape:window-maximized="1"
     inkscape:current-layer="layer1">
    <inkscape:grid
       id="grid1"
       units="px"
       originx="0"
       originy="0"
       spacingx="1"
       spacingy="1"
       empcolor="#0099e5"
       empopacity="0.30196078"
       color="#0099e5"
       opacity="0.14901961"
       empspacing="5"
       dotted="false"
       gridanglex="30"
       gridanglez="30"
       visible="true" />
  </sodipodi:namedview>
  <defs
     id="defs1" />
  <g
     inkscape:label="Layer 1"
     inkscape:groupmode="layer"
     id="layer1">
    <path
       d="m 12,3 h 1 V 2.6054688 C 13,1.7159516 12.250225,1 11.318359,1 H 11 v 1 c 0.553998,0 1,0.4460012 1,1 z"
       style="fill:#8da5f3;stroke:#8da5f3;stroke-linecap:round;stroke-linejoin:round;paint-order:markers fill stroke"
       id="path71" />
    <path
       d="m 12,7 h 1 V 5 h -1 z"
       style="fill:#8da5f3;stroke:#8da5f3;stroke-linecap:round;stroke-linejoin:round;paint-order:markers fill stroke"
       id="path70" />
    <path
       d="m 12,11 h 1 V 9 h -1 z"
       style="fill:#8da5f3;stroke:#8da5f3;stroke-linecap:round;stroke-linejoin:round;paint-order:markers fill stroke"
       id="path69" />
    <path
       d="m 11,14 v 1 h 0.318359 C 12.250225,15 13,14.284048 13,13.394531 V 13 h -1 c 0,0.553998 -0.446002,1 -1,1 z"
       style="fill:#8da5f3;stroke:#8da5f3;stroke-linecap:round;stroke-linejoin:round;paint-order:markers fill stroke"
       id="path68" />
    <path
       d="m 7,14 v 1 h 2 v -1 z"
       style="fill:#8da5f3;stroke:#8da5f3;stroke-linecap:round;stroke-linejoin:round;paint-order:markers fill stroke"
       id="path67" />
    <path
       d="M 4,13 H 3 v 0.394531 C 3,14.284048 3.7497749,15 4.6816406,15 H 5 V 14 C 4.4460012,14 4,13.553998 4,13 Z"
       style="fill:#8da5f3;stroke:#8da5f3;stroke-linecap:round;stroke-linejoin:round;paint-order:markers fill stroke"
       id="path66" />
    <path
       d="M 4,9 H 3 v 2 h 1 z"
       style="fill:#8da5f3;stroke:#8da5f3;stroke-linecap:round;stroke-linejoin:round;paint-order:markers fill stroke"
       id="path65" />
    <path
       d="M 3,5 V 7 H 4 V 5 Z"
       style="fill:#8da5f3;stroke:#8da5f3;stroke-linecap:round;stroke-linejoin:round;paint-order:markers fill stroke"
       id="path64" />
    <path
       d="M 4,3 C 4,2.4460012 4.4460012,2 5,2 V 1 H 4.6816406 C 3.7497749,1 3,1.7159516 3,2.6054688 V 3 Z"
       style="fill:#8da5f3;stroke:#8da5f3;stroke-linecap:round;stroke-linejoin:round;paint-order:markers fill stroke"
       id="path63" />
    <path
       d="M 7,1 V 2 H 9 V 1 Z"
       style="fill:#8da5f3;stroke:#8da5f3;stroke-linecap:round;stroke-linejoin:round;paint-order:markers fill stroke"
       id="path62" />
  </g>
</svg>
