<?xml version="1.0" encoding="UTF-8" standalone="no"?>
<!-- Created with Inkscape (http://www.inkscape.org/) -->

<svg
   width="16"
   height="16"
   viewBox="0 0 16 16"
   version="1.1"
   id="svg1"
   inkscape:version="1.3.2 (091e20e, 2023-11-25, custom)"
   sodipodi:docname="card_space2D.svg"
   xmlns:inkscape="http://www.inkscape.org/namespaces/inkscape"
   xmlns:sodipodi="http://sodipodi.sourceforge.net/DTD/sodipodi-0.dtd"
   xmlns="http://www.w3.org/2000/svg"
   xmlns:svg="http://www.w3.org/2000/svg">
  <sodipodi:namedview
     id="namedview1"
     pagecolor="#ffffff"
     bordercolor="#000000"
     borderopacity="0.25"
     inkscape:showpageshadow="2"
     inkscape:pageopacity="0.0"
     inkscape:pagecheckerboard="0"
     inkscape:deskcolor="#d1d1d1"
     inkscape:document-units="px"
     showgrid="true"
     inkscape:zoom="28.7"
     inkscape:cx="6.2020906"
     inkscape:cy="9.3554007"
     inkscape:window-width="1920"
     inkscape:window-height="1057"
     inkscape:window-x="-8"
     inkscape:window-y="490"
     inkscape:window-maximized="1"
     inkscape:current-layer="layer1">
    <inkscape:grid
       id="grid1"
       units="px"
       originx="0"
       originy="0"
       spacingx="1"
       spacingy="1"
       empcolor="#0099e5"
       empopacity="0.30196078"
       color="#0099e5"
       opacity="0.14901961"
       empspacing="5"
       dotted="false"
       gridanglex="30"
       gridanglez="30"
       visible="true" />
  </sodipodi:namedview>
  <defs
     id="defs1" />
  <g
     inkscape:label="Layer 1"
     inkscape:groupmode="layer"
     id="layer1">
    <path
       d="M 4.6816406,1 C 3.7497739,1 3,1.7159508 3,2.6054688 V 13.394531 C 3,14.284049 3.7497739,15 4.6816406,15 H 11.318359 C 12.250226,15 13,14.284049 13,13.394531 V 2.6054688 C 13,1.7159508 12.250226,1 11.318359,1 Z M 5,2 h 6 c 0.553999,0 1,0.4460006 1,1 v 10 c 0,0.553999 -0.446001,1 -1,1 H 5 C 4.4460006,14 4,13.553999 4,13 V 3 C 4,2.4460006 4.4460006,2 5,2 Z"
       style="fill:#8da5f3;stroke-width:1;stroke-linecap:round;stroke-linejoin:round;paint-order:markers fill stroke;stroke-dasharray:none;stroke:#8da5f3;stroke-opacity:1"
       id="path3" />
  </g>
</svg>
